<svg width="586" height="667" xmlns:xlink="http://www.w3.org/1999/xlink" xmlns="http://www.w3.org/2000/svg"><defs><clipPath id="n"><use xlink:href="#a"/></clipPath><clipPath id="m"><use xlink:href="#i"/></clipPath><clipPath id="l"><use xlink:href="#h"/></clipPath><clipPath id="k"><use xlink:href="#g"/></clipPath><clipPath id="j"><use xlink:href="#f"/></clipPath><clipPath id="r"><use xlink:href="#e"/></clipPath><clipPath id="q"><use xlink:href="#d"/></clipPath><clipPath id="p"><use xlink:href="#c"/></clipPath><clipPath id="o"><use xlink:href="#b"/></clipPath><path d="M106.399 29.494s-5.657-1.71-6.594 2.277c-.937 3.987 2.604 7.966 2.604 7.966s1.578 16.882-17.075 30.99c-10.775 8.15-10.174 36.695-19.772 50.62-9.259 13.434-25.767 23.448-41.419 16.95-35.73-14.833-25.493-53.556-9.464-69.348 18.482-18.207 36.728-3.345 52.611-51.568C71.915 3.338 93.08-5.16 105.46 3.483c12.38 8.642.939 26.011.939 26.011z" transform="translate(.884)" id="g"/><path d="M1.733 0h15.622q.085 0 .17.008.085.009.168.025.084.017.165.042.082.024.16.057.079.033.154.073.075.04.146.087.07.047.137.101.065.054.126.115.06.06.114.126.054.065.101.136.047.071.088.146.04.075.072.154.033.079.058.16.024.081.04.165.018.083.026.168t.008.17v14.795q0 .085-.008.17-.008.084-.025.168-.017.083-.041.165-.025.081-.058.16-.032.079-.072.154-.04.075-.088.146-.047.07-.101.136-.054.066-.114.126-.06.06-.126.114-.066.055-.137.102-.07.047-.146.087-.075.04-.154.073-.078.032-.16.057-.081.025-.165.042-.083.016-.168.024-.085.009-.17.009H1.733q-.085 0-.17-.008-.085-.009-.168-.025-.084-.017-.165-.042-.081-.024-.16-.057t-.154-.073q-.075-.04-.146-.087-.07-.047-.136-.102-.066-.053-.126-.114-.06-.06-.115-.126-.054-.066-.1-.136-.048-.071-.088-.146-.04-.075-.073-.154-.033-.079-.057-.16-.025-.082-.042-.165-.016-.084-.025-.168Q0 16.613 0 16.528V1.733q0-.085.008-.17.009-.085.025-.168.017-.084.042-.165.024-.081.057-.16T.205.916Q.245.841.292.77.34.7.393.634.447.568.508.508q.06-.06.126-.115Q.699.34.77.293.841.244.916.204q.075-.04.154-.073.079-.033.16-.057.081-.025.165-.042.083-.016.168-.025Q1.648 0 1.733 0z" transform="translate(31.235 41.74)" id="e"/><path d="M1.733 0h38.181q.085 0 .17.008.085.009.168.025.084.017.165.042.081.024.16.057t.154.073q.075.04.146.087.07.047.136.101.066.054.126.115.06.06.115.126.054.065.101.136.047.071.087.146.04.075.073.154.033.079.057.16.025.081.042.165.016.083.025.168.008.085.008.17v13.534q0 .085-.008.17-.009.085-.025.168-.017.083-.042.165-.024.082-.057.16-.032.079-.073.154-.04.075-.087.146-.047.07-.101.136-.054.066-.115.126-.06.06-.126.115-.065.054-.136.1-.071.048-.146.088-.075.04-.154.073-.078.033-.16.057-.081.025-.165.042-.083.016-.168.025-.085.008-.17.008H1.734q-.086 0-.17-.008-.086-.009-.169-.025-.084-.017-.165-.042-.081-.024-.16-.057-.079-.032-.154-.073-.075-.04-.146-.087-.07-.047-.136-.101-.066-.054-.126-.115-.06-.06-.115-.126-.054-.066-.1-.136-.048-.071-.088-.146-.04-.075-.073-.154-.033-.079-.057-.16-.025-.082-.042-.165-.016-.084-.025-.168Q0 15.352 0 15.267V1.733q0-.085.008-.17.009-.085.025-.168.017-.084.042-.165.024-.081.057-.16T.205.916Q.245.841.292.77.34.7.393.634.447.568.508.508q.06-.06.126-.115Q.699.34.77.293.841.244.916.204q.075-.04.154-.073.079-.033.16-.057.081-.025.165-.042.083-.016.168-.025Q1.648 0 1.733 0z" transform="translate(8.676 77.391)" id="d"/><path d="M1.733 0h15.622q.085 0 .17.008.085.009.168.025.084.017.165.042.082.024.16.057.079.033.154.073.075.04.146.087.07.047.137.101.065.054.126.115.06.06.114.126.054.065.101.136.047.071.088.146.04.075.072.154.033.079.058.16.024.081.04.165.018.083.026.168t.008.17v14.795q0 .085-.008.17-.008.084-.025.168-.017.083-.041.165-.025.081-.058.16-.032.079-.072.154-.04.075-.088.146-.047.07-.101.136-.054.066-.114.126-.06.06-.126.114-.066.055-.137.102-.07.047-.146.087-.075.04-.154.073-.078.032-.16.057-.081.025-.165.042-.083.016-.168.024-.085.009-.17.009H1.733q-.085 0-.17-.008-.085-.009-.168-.025-.084-.017-.165-.042-.081-.024-.16-.057t-.154-.073q-.075-.04-.146-.087-.07-.047-.136-.102-.066-.053-.126-.114-.06-.06-.115-.126-.054-.066-.1-.136-.048-.071-.088-.146-.04-.075-.073-.154-.033-.079-.057-.16-.025-.082-.042-.165-.016-.084-.025-.168Q0 16.613 0 16.528V1.733q0-.085.008-.17.009-.085.025-.168.017-.084.042-.165.024-.081.057-.16T.205.916Q.245.841.292.77.34.7.393.634.447.568.508.508q.06-.06.126-.115Q.699.34.77.293.841.244.916.204q.075-.04.154-.073.079-.033.16-.057.081-.025.165-.042.083-.016.168-.025Q1.648 0 1.733 0z" transform="translate(8.676 41.74)" id="c"/><path d="M6.935 0h45.13q.17 0 .34.008.17.009.34.025.169.017.337.042.169.025.336.058t.332.075q.165.041.328.09.163.05.323.107.16.058.318.123.157.065.31.138.155.073.305.153t.296.168q.146.087.288.182.141.094.278.196.137.101.268.21.132.107.258.222.126.114.247.234.12.12.234.247.115.126.223.258.108.131.21.268.1.137.195.278.095.142.182.288.088.146.168.296.08.15.153.304t.138.311q.065.158.123.318.057.16.106.323.05.163.091.328.041.165.075.332.033.167.058.336.025.168.042.338.016.17.025.34.008.17.008.34v106.129q0 .17-.008.34-.009.17-.025.339-.017.17-.042.338-.025.169-.058.336t-.075.332q-.041.165-.09.328-.05.163-.107.323-.058.16-.123.318-.065.157-.138.311-.073.154-.153.304t-.168.296q-.087.146-.182.288-.094.141-.196.278-.101.137-.21.268-.107.132-.222.258-.114.126-.234.247-.12.12-.247.234-.126.115-.258.223-.131.108-.268.209-.137.102-.278.196-.142.095-.288.182-.146.088-.296.168-.15.08-.304.153t-.311.138q-.158.065-.318.123-.16.057-.323.106-.163.05-.328.091-.165.042-.332.075-.167.033-.336.058-.168.025-.338.042-.17.016-.34.025-.17.008-.34.008H6.936q-.17 0-.34-.008-.17-.009-.34-.025-.169-.017-.337-.042-.169-.025-.336-.058t-.332-.075q-.165-.041-.328-.091-.163-.049-.323-.106-.16-.058-.318-.123-.157-.065-.31-.138-.155-.073-.305-.153t-.296-.168q-.146-.087-.288-.182-.141-.094-.278-.196-.137-.101-.268-.209-.132-.108-.258-.223-.126-.114-.247-.234-.12-.121-.234-.247-.115-.126-.223-.258-.108-.131-.21-.268-.1-.137-.195-.278-.095-.142-.182-.288-.088-.146-.168-.296-.08-.15-.153-.304t-.138-.311q-.065-.158-.123-.318-.057-.16-.106-.323-.05-.163-.091-.328-.042-.165-.075-.332-.033-.167-.058-.336-.025-.168-.042-.338-.016-.169-.025-.339-.008-.17-.008-.34V6.935q0-.17.008-.34.009-.17.025-.34.017-.169.042-.337.025-.169.058-.336t.075-.332q.041-.165.09-.328.05-.163.107-.323.058-.16.123-.318.065-.157.138-.31.073-.155.153-.305t.168-.296q.087-.146.182-.288.094-.141.196-.278.101-.137.21-.268.107-.132.222-.258.114-.126.234-.247.12-.12.247-.234.126-.115.258-.223.131-.108.268-.21.137-.1.278-.195.142-.095.288-.182.146-.088.296-.168.15-.08.304-.153t.311-.138Q4.44.463 4.6.405q.16-.057.323-.106.163-.05.328-.091.165-.042.332-.075Q5.75.1 5.918.075q.168-.025.338-.042.17-.016.34-.025.17-.008.34-.008z" id="b"/><path d="M6.935 0h138.13q.17 0 .34.008.17.009.339.025.17.017.338.042.169.025.336.058t.332.075q.165.041.328.09.163.05.323.107.16.058.318.123.157.065.311.138.154.073.304.153t.296.168q.146.087.288.182.141.094.278.196.137.101.268.21.132.107.258.222.126.114.247.234.12.12.234.247.115.126.223.258.108.131.209.268.102.137.196.278.095.142.182.288.088.146.168.296.08.15.153.304t.138.311q.065.158.123.318.057.16.106.323.05.163.091.328.042.165.075.332.033.167.058.336.025.168.042.338.016.17.025.34.008.17.008.34v106.129q0 .17-.008.34-.009.17-.025.339-.017.17-.042.338-.025.169-.058.336t-.075.332q-.041.165-.091.328-.049.163-.106.323-.058.16-.123.318-.065.157-.138.311-.073.154-.153.304t-.168.296q-.087.146-.182.288-.094.141-.196.278-.101.137-.209.268-.108.132-.223.258-.114.126-.234.247-.121.12-.247.234-.126.115-.258.223-.131.108-.268.209-.137.102-.278.196-.142.095-.288.182-.146.088-.296.168-.15.08-.304.153t-.311.138q-.158.065-.318.123-.16.057-.323.106-.163.05-.328.091-.165.042-.332.075-.167.033-.336.058-.168.025-.338.042-.169.016-.339.025-.17.008-.34.008H6.935q-.17 0-.34-.008-.17-.009-.34-.025-.169-.017-.337-.042-.169-.025-.336-.058t-.332-.075q-.165-.041-.328-.091-.163-.049-.323-.106-.16-.058-.318-.123-.157-.065-.31-.138-.155-.073-.305-.153t-.296-.168q-.146-.087-.288-.182-.141-.094-.278-.196-.137-.101-.268-.209-.132-.108-.258-.223-.126-.114-.247-.234-.12-.121-.234-.247-.115-.126-.223-.258-.108-.131-.21-.268-.1-.137-.195-.278-.095-.142-.182-.288-.088-.146-.168-.296-.08-.15-.153-.304t-.138-.311q-.065-.158-.123-.318-.057-.16-.106-.323-.05-.163-.091-.328-.042-.165-.075-.332-.033-.167-.058-.336-.025-.168-.042-.338-.016-.169-.025-.339-.008-.17-.008-.34V6.935q0-.17.008-.34.009-.17.025-.34.017-.169.042-.337.025-.169.058-.336t.075-.332q.041-.165.09-.328.05-.163.107-.323.058-.16.123-.318.065-.157.138-.31.073-.155.153-.305t.168-.296q.087-.146.182-.288.094-.141.196-.278.101-.137.21-.268.107-.132.222-.258.114-.126.234-.247.12-.12.247-.234.126-.115.258-.223.131-.108.268-.21.137-.1.278-.195.142-.095.288-.182.146-.088.296-.168.15-.08.304-.153t.311-.138Q4.44.463 4.6.405q.16-.057.323-.106.163-.05.328-.091.165-.042.332-.075Q5.75.1 5.918.075q.168-.025.338-.042.17-.016.34-.025.17-.008.34-.008z" id="a"/><path d="M16 32c8.837 0 16-7.163 16-16S24.837 0 16 0 0 7.163 0 16s7.163 16 16 16z" id="i"/><path d="M87.5 43.784C87.5 19.603 67.912 0 43.75 0 19.587 0 0 19.603 0 43.784c0 24.181 19.587 43.784 43.75 43.784V66.552C31.186 66.552 21 56.358 21 43.784s10.186-22.768 22.75-22.768c12.565 0 22.75 10.194 22.75 22.768h21z" transform="translate(.044)" id="h"/><path d="M26.25 52.54c14.498 0 26.25-11.76 26.25-26.27C52.5 11.762 40.748 0 26.25 0S0 11.762 0 26.27c0 14.51 11.752 26.27 26.25 26.27z" transform="translate(0 .254)" id="f"/></defs><path d="M378.58 256.36s10.403 37.798 37.531 34.809c27.128-2.99 13.504 3.217-5.434 50.697-18.937 47.48 13.234 25.464 13.68 66.99.445 41.528-98.609 59.283-100.333 27.608-1.725-31.675-113.64-63.19-113.64-63.19S76.25 419.662 76.25 380.331c0-39.331 23.744-45.831 23.744-45.831s-31.354-9.848-31.732-31.829c-.377-21.98 19.196-15.382 19.196-15.382s-22.51-101.683 27.695-105.37c50.207-3.686 64.309-74.004 82.298-73.7 31.55.531 34.16 82.99 122.385 84.478 27.093.458 34.934-34.52 55.973-33.448 19.445.993 50.771 40.147 50.771 40.147s-2.822-70.411 43.212-43.812c46.033 26.598-50.304 92.488 12.19 107.015 62.494 14.527 81.258-23.405 81.258-23.405" fill="none" stroke="#82CAC7" stroke-width="3"/><path d="m286.765 652.243 15.333 11.148-67.18-4.698 23.77-101.763-5.007-37.735s-1.296 29.565-4.676 37.058c-7.82 17.336-50.509 89.818-50.509 89.818l17.338 11.288-71.35-4.99 53.218-109.727s.17-124.302 58.37-120.232c58.201 4.07 47.27 132.59 47.27 132.59l-16.577 97.243z" fill="#1A0D7C" fill-rule="evenodd"/><path d="M96.862 505.527c0-19.069-15.446-34.527-34.5-34.527" fill="none" stroke="#1A0D7C" stroke-width="2"/><path d="M61.612 532.8c14.498 0 26.25-11.761 26.25-26.27s-11.752-26.27-26.25-26.27c-14.497 0-26.25 11.761-26.25 26.27s11.753 26.27 26.25 26.27z" fill="#9FDEEB" fill-rule="evenodd"/><g clip-path="url(#j)" transform="translate(35.362 480.006)"><path d="M53.38 5.603S16.543 21.674 36.902-1.975M50.792 39.841S19.81 23.557 23.906 31.344c4.097 7.786 14.691 15.038 14.691 15.038s-21.288-6.846-6.849 5.509c14.44 12.354 10.505 9.271 10.505 9.271" fill="none" stroke="#FFF" stroke-width=".5"/><path d="M11.784 22.18c2.422-.56 4.184-1.886 3.935-2.963-.248-1.077-2.413-1.497-4.834-.937-2.422.56-4.184 1.886-3.935 2.963.248 1.077 2.413 1.497 4.834.937zM51.652 32.759c1.464 1.465 3.284 2.02 4.066 1.238.78-.781.227-2.603-1.238-4.069-1.464-1.465-3.285-2.02-4.066-1.238-.78.781-.227 2.603 1.238 4.069z" fill="#FFF" fill-rule="evenodd"/></g><path d="M238.71 462.877v.001q-.066.09-.135.176-.07.086-.143.168-.073.083-.15.162-.078.079-.159.154-.08.075-.166.146-.084.07-.172.137-.088.067-.18.129-.09.062-.185.12-.094.058-.191.11-.097.054-.196.102-.1.048-.201.091-.102.044-.206.082-.103.038-.209.071-.105.033-.212.061-.107.028-.215.05-.108.023-.217.04-.109.018-.219.03t-.22.018q-.11.007-.22.008-.111 0-.221-.004t-.22-.014q-.11-.01-.22-.025-.11-.015-.218-.035-.109-.02-.216-.046t-.213-.057q-.106-.031-.21-.067-.105-.037-.208-.078-.102-.041-.202-.087-.1-.047-.198-.098-.098-.05-.194-.107-.095-.055-.187-.116-.093-.06-.182-.125l-6.485-4.712q-.089-.064-.175-.134-.086-.069-.169-.142-.082-.074-.161-.151t-.154-.158q-.075-.082-.146-.166-.07-.085-.137-.173-.067-.088-.13-.18-.062-.09-.12-.185-.057-.094-.11-.19-.053-.098-.101-.197-.048-.1-.092-.2-.043-.103-.081-.206-.038-.104-.071-.21-.034-.105-.061-.211-.028-.107-.05-.215-.023-.108-.04-.218-.018-.109-.03-.218-.012-.11-.018-.22-.007-.11-.008-.221-.001-.11.003-.22.005-.111.014-.221.01-.11.025-.22.015-.11.036-.218.02-.108.046-.216.026-.107.057-.213.031-.106.067-.21.036-.105.078-.207.04-.103.087-.203.046-.1.097-.198.052-.098.107-.193.056-.096.117-.188.06-.092.125-.182l.001-.001q.065-.09.134-.176.07-.086.143-.168.073-.083.15-.162.078-.079.16-.154.08-.075.165-.146.085-.07.173-.137.088-.067.179-.129t.185-.12q.094-.058.191-.11.097-.054.197-.102.099-.048.2-.091.102-.044.206-.082.103-.038.209-.071.105-.033.212-.061.107-.028.215-.05.108-.023.217-.04.11-.018.22-.03.109-.012.22-.018.11-.007.22-.008.11 0 .22.004.111.004.221.014t.22.025q.109.015.217.035.109.02.216.046.108.026.214.057.106.031.21.067.104.037.207.078.102.041.203.087.1.047.198.098.098.05.193.107.095.055.188.116.092.06.181.125l6.485 4.712q.09.064.175.134.086.069.169.142.082.074.161.15.08.078.154.16.075.08.146.165.07.085.138.173.066.088.129.18.062.09.12.185.057.094.11.19.053.098.101.197.049.1.092.2.043.102.081.206.039.104.072.21.033.104.06.211.029.107.051.215.023.108.04.217.017.11.03.22.011.11.018.22.006.11.007.22t-.003.22q-.004.111-.014.221t-.025.22q-.015.11-.036.218-.02.108-.046.216-.026.107-.057.213-.03.106-.067.21-.036.105-.077.207-.042.103-.088.203-.046.1-.097.198-.051.098-.107.193-.056.096-.116.188-.06.092-.126.182z" fill="#FFF" fill-rule="evenodd"/><path d="m248.437 457.33-4.997 6.877q-.123.169-.253.331-.131.163-.27.319-.138.156-.284.305-.146.149-.3.29-.153.142-.313.276-.16.134-.326.26-.167.126-.339.243-.172.118-.35.227-.178.109-.361.209-.183.1-.37.191-.188.091-.38.173-.192.082-.388.154t-.395.135q-.199.062-.4.115-.203.052-.407.095-.204.043-.41.076-.206.032-.414.055-.207.022-.415.034-.209.013-.417.015-.209.002-.417-.006-.209-.009-.417-.027-.208-.018-.414-.047-.207-.029-.412-.067-.205-.039-.408-.088-.203-.048-.403-.107t-.397-.127q-.197-.068-.391-.146-.194-.078-.383-.166-.19-.087-.374-.183-.185-.097-.365-.202-.18-.106-.355-.22t-.343-.237l-10.52-7.642q-.168-.123-.33-.254-.163-.13-.32-.27-.155-.138-.304-.284-.149-.146-.29-.3-.142-.152-.276-.312-.134-.16-.26-.327-.126-.166-.244-.338-.117-.173-.226-.35-.11-.178-.21-.361-.1-.183-.19-.371-.092-.188-.173-.38-.082-.192-.154-.388-.073-.195-.135-.394-.063-.2-.115-.401-.053-.202-.096-.406-.042-.205-.075-.41-.033-.207-.055-.414-.023-.208-.035-.416-.012-.208-.014-.417-.002-.208.006-.417.008-.208.027-.416.018-.208.047-.415.028-.206.067-.411.038-.205.087-.408.049-.203.108-.403.058-.2.127-.398.068-.197.146-.39.078-.194.165-.383.087-.19.184-.375t.202-.365q.106-.18.22-.354.114-.175.237-.344l4.996-6.877 24.27 17.633z" fill="#F6DFD2" fill-rule="evenodd"/><path d="m370.732 319.31-103.34 142.237q-.116.158-.239.311-.123.154-.253.3-.13.147-.268.288-.138.14-.282.273-.144.133-.295.26-.15.125-.307.244-.156.118-.319.23-.162.11-.33.212-.166.102-.339.197-.172.095-.349.18-.177.086-.357.162-.181.078-.365.146-.184.067-.372.126-.187.06-.377.11-.19.048-.382.089-.192.04-.386.07-.194.031-.39.052-.195.022-.39.033-.197.012-.393.014-.197.002-.393-.006t-.392-.025q-.195-.018-.39-.045-.194-.026-.387-.063-.193-.036-.384-.082-.19-.046-.38-.101-.188-.055-.374-.12-.185-.064-.367-.137-.182-.074-.36-.156-.18-.082-.353-.173-.174-.09-.343-.19-.17-.1-.334-.207-.165-.107-.323-.223l-38.065-27.656q-.16-.115-.312-.238-.153-.123-.3-.253-.147-.131-.287-.269-.14-.137-.273-.281-.134-.144-.26-.295-.126-.15-.245-.307-.118-.156-.228-.32-.111-.161-.214-.329-.103-.167-.197-.34-.094-.171-.18-.348-.086-.177-.162-.357-.077-.181-.145-.365-.068-.184-.127-.372-.059-.187-.108-.378-.05-.189-.09-.381-.04-.193-.071-.387-.03-.194-.052-.389-.021-.195-.033-.39-.012-.197-.013-.393-.002-.197.005-.393.008-.196.026-.392.017-.195.044-.39.026-.194.063-.387.037-.194.082-.384.046-.191.101-.38.055-.188.12-.374.064-.185.137-.367.074-.183.156-.36.082-.18.173-.353.091-.175.19-.344.1-.169.207-.333.108-.165.223-.324l103.412-142.334q.479-.659 1.03-1.257.551-.599 1.169-1.13.617-.53 1.291-.986.674-.455 1.397-.83l47.854-24.785q.183-.095.371-.177.19-.082.383-.15.195-.07.393-.125.198-.055.4-.097.202-.041.406-.069.204-.027.41-.041.205-.014.41-.013.206 0 .412.015.205.015.41.043.203.029.405.071.201.043.4.1.197.056.39.125.195.07.383.153.189.083.371.179.182.095.358.203.175.108.343.228.167.12.326.25.16.131.309.272.15.142.29.293.139.152.268.312t.246.33q.118.169.223.346.106.176.2.36.093.184.173.373.08.19.148.384.067.195.121.394.054.198.094.4t.066.407q.026.204.038.41.013.205.01.41-.002.207-.018.412t-.046.409l-7.976 53.764q-.124.834-.346 1.647-.223.813-.542 1.593-.318.78-.728 1.517-.41.736-.906 1.418z" fill="#82CAC7" fill-rule="evenodd"/><path d="M289.352 272.81s11.845 18.386 5.79 30.277c-6.053 11.892-16.983 13.346-16.983 13.346s-4.726 11.45-2.833 20.918c-2.61-3.81-14.13-13.729-14.13-13.729l12.237-48.787 9.438-10.789 6.48 8.765z" fill="#F6DFD2" fill-rule="evenodd"/><path d="M216.58 435.496c-24.143-12.604-13.718-39.794-13.718-39.794s34.419 1.947 42.068-27.222c4.701-17.926 15.926-43.313 15.926-43.313s11.314 4.156 17.273 18.543c5.96 14.386 18.495 35.422 34.237 35.422 31.871 0 31.871-38.874 31.871-38.874s2.907-3.223 5.63-4.074c2.724-.852 6.7-1.016 6.7-1.016s17.291 56.575-24.772 75.494c-42.062 18.919-72.659-19.518-72.659-19.518l-8.82-13.412-30.014 41.347s-5.332 6.609-5.403 9.159a32.71 32.71 0 0 0 0 1.849c.022.667.331 1.376.485 1.903 2.25 7.706 3.1 4.5 1.196 3.506z" fill="#FCF9FF" fill-rule="evenodd"/><path d="M219.936 438.242c-14.929-12.533-17.074-42.54-17.074-42.54s34.418 1.947 42.068-27.222c4.7-17.926 15.926-43.313 15.926-43.313s11.314 4.156 17.273 18.543c5.959 14.386 18.495 35.422 34.237 35.422 31.87 0 31.87-38.874 31.87-38.874s2.908-3.223 5.631-4.074c2.724-.852 6.7-1.016 6.7-1.016s17.291 56.575-24.772 75.494c-25.785 11.598-48.339 7.03-67.66-13.703-1.691-1.815-14.384-19.928-14.384-19.928" fill="none" stroke="#1A0D7C" stroke-width="2"/><path d="M284.645 287.637s-5.657-1.71-6.594 2.277c-.937 3.987 2.604 7.966 2.604 7.966s1.578 16.882-17.075 30.99c-10.775 8.15-10.174 36.695-19.772 50.62-9.259 13.434-25.767 23.448-41.419 16.95-35.73-14.833-25.493-53.556-9.464-69.348 18.482-18.207 36.728-3.345 52.611-51.568 4.625-14.043 25.79-22.54 38.17-13.898 12.38 8.642.939 26.011.939 26.011z" fill="#1A0D7C" fill-rule="evenodd"/><g clip-path="url(#k)" transform="translate(177.362 258.143)"><path d="M103.125 38.755S92.608 60.722 77.423 60.722c-15.184 0-28.287 2.154-37.425 31.436C30.86 121.44-6.5 105.643-6.5 105.643s8.49 35.505 21.807 45.368c13.317 9.863 67.673-13.673 67.673-13.673s16.852-57.44 20.145-74.64c3.294-17.2 0-23.943 0-23.943z" fill="#392B9D" fill-rule="evenodd"/></g><path d="M221.907 233.784c0-24.181-19.588-43.784-43.75-43.784-24.163 0-43.75 19.603-43.75 43.784 0 24.181 19.587 43.784 43.75 43.784v-21.016c-12.565 0-22.75-10.194-22.75-22.768s10.185-22.768 22.75-22.768c12.564 0 22.75 10.194 22.75 22.768h21z" fill="#1A0D7C"/><g clip-path="url(#l)" fill="none" stroke="#FFF" transform="translate(134.362 190)"><path d="M-18.85 76.523c12.088-6.081 20.485-6.04 29.021 6.782.32.481-1.241.067-1.72-.26-1.063-.725-1.951-1.713-2.704-2.758-.568-.79-.904-1.734-1.198-2.662-.337-1.065-.737-2.164-.683-3.28.166-3.447.719-6.872 1.336-10.269.293-1.606.648-3.242 1.387-4.7.465-.918 1.311-1.613 2.13-2.239.54-.413 1.216-.627 1.869-.82 2.508-.746 4.995-1.68 7.591-1.99 1.19-.143 2.408.243 3.53.657 2.37.877-.44 3.667-1.218 4.002-5.504 2.373-15.185-.4-14.748-7.675.099-1.648.758-3.242 1.469-4.736.287-.604.863-1.067 1.448-1.395 2.817-1.579 5.869-2.713 8.688-4.288.234-.13.395-.485.311-.738a8.34 8.34 0 0 0-1.416-2.585 27.21 27.21 0 0 0-3.701-3.756c-2.59-2.169-5.172-4.399-8.084-6.114-.844-.498-1.94-.431-2.92-.368-6.38.412-12.791 5.983-17.828 9.513M48.62 33.999c12.087-6.081 20.485-6.04 29.021 6.782.32.481-1.241.067-1.72-.26-1.064-.725-1.952-1.713-2.704-2.758-.568-.79-.904-1.734-1.198-2.662-.337-1.065-.737-2.164-.683-3.28.166-3.447.718-6.872 1.336-10.269.292-1.606.647-3.242 1.386-4.7.465-.918 1.312-1.613 2.13-2.239.54-.413 1.217-.627 1.87-.82 2.507-.746 4.994-1.68 7.591-1.99 1.19-.143 2.408.243 3.53.657 2.37.877-.44 3.667-1.219 4.002-5.503 2.373-15.184-.4-14.747-7.675.099-1.648.758-3.242 1.468-4.735.288-.605.864-1.068 1.45-1.396 2.816-1.579 5.868-2.713 8.687-4.287.234-.13.395-.486.311-.74a8.34 8.34 0 0 0-1.416-2.584 27.21 27.21 0 0 0-3.702-3.756c-2.59-2.169-5.171-4.399-8.083-6.114-.844-.498-1.94-.431-2.92-.368-6.38.412-12.791 5.983-17.828 9.513"/></g><path d="M290.112 291.14c.69 0 1.25-.784 1.25-1.751 0-.967-.56-1.752-1.25-1.752s-1.25.785-1.25 1.752.56 1.751 1.25 1.751z" fill="#0E101A" fill-rule="evenodd"/><path d="M295.362 290.845c1.166 1.73 2.329 4.146 2.329 4.146" fill="none" stroke="#0E101A" stroke-linecap="round"/><path d="M523.076 171.419c-4.813 7.41-2.706 17.32 4.705 22.133 7.41 4.812 17.32 2.706 22.133-4.705 4.812-7.41 2.706-17.32-4.705-22.133-7.41-4.813-17.32-2.706-22.133 4.705z" fill="#82CAC7" fill-rule="evenodd"/><g clip-path="url(#m)" transform="rotate(123 231.689 239.37)"><path d="M25.168-.052S2.777 9.608 15.15-4.607M31.023 23.653s-18.833-9.787-16.342-5.108c2.49 4.68 8.93 9.039 8.93 9.039s-12.94-4.115-4.163 3.31c8.776 7.426 6.385 5.573 6.385 5.573" fill="none" stroke="#FFF" stroke-width=".5"/><path d="M6.597 13.203a1.985 1.985 0 0 0 1.5-2.388 2.015 2.015 0 0 0-2.404-1.508 1.985 1.985 0 0 0-1.499 2.388 2.015 2.015 0 0 0 2.403 1.508zM31.546 19.396c.89.88 1.996 1.214 2.471.744.475-.47.138-1.564-.752-2.445-.89-.881-1.997-1.214-2.471-.745-.475.47-.138 1.565.752 2.446z" fill="#FFF" fill-rule="evenodd"/></g><g><g transform="translate(400.362 329)"><use fill="#FBFBFD" xlink:href="#a" fill-rule="evenodd"/><g clip-path="url(#n)"><use xlink:href="#a" fill="none" stroke="#1A0D7C" stroke-width="5.202"/></g></g><path d="M429.894 356.826v70.435s64.087-.313 92.937 0" fill="none" stroke="#F6DFD2" stroke-width="3"/><path d="M428.157 426.391c3.15-4.354 15.995-28.61 37.363-25.245 19.736 3.108 24.704-29.852 31.843-33.016 10.723-4.75 16.926 15.659 33.285 0" fill="none" stroke="#1A0D7C" stroke-width="4"/><path d="M400.362 344.768h152" fill="none" stroke="#1A0D7C" stroke-width="2.601"/><path d="M419.47 340.304a2.607 2.607 0 0 0 2.607-2.608 2.607 2.607 0 0 0-2.606-2.609 2.607 2.607 0 0 0-2.606 2.609 2.607 2.607 0 0 0 2.606 2.608zM410.785 340.304a2.607 2.607 0 0 0 2.606-2.608 2.607 2.607 0 0 0-2.606-2.609 2.607 2.607 0 0 0-2.606 2.609 2.607 2.607 0 0 0 2.606 2.608zM428.157 340.304a2.607 2.607 0 0 0 2.605-2.608 2.607 2.607 0 0 0-2.605-2.609 2.607 2.607 0 0 0-2.606 2.609 2.607 2.607 0 0 0 2.606 2.608z" fill="#F6DFD2" fill-rule="evenodd"/></g><g><g transform="translate(378.362 372)"><use fill="#FBFBFD" xlink:href="#b" fill-rule="evenodd"/><g clip-path="url(#o)"><use xlink:href="#b" fill="none" stroke="#1A0D7C" stroke-width="5.202"/></g></g><path d="M410.25 474.651c-.323-.21-3.146-1.74-5.406-.66-2.75 1.313-3.09 7.56.03 8.5 11.051 3.332 9.016-6.542 4.927-8.049" fill="none" stroke="#F6DFD2" stroke-width="3"/><path d="M386.684 398.087c14.46-.875 28.972 0 42.87 0M386.684 438.716c5.561-.875 11.141 0 16.485 0M411.333 438.716c5.56-.875 11.14 0 16.485 0M387.039 404.885c10.99-.368 21.785-.184 32.775-.553M386.684 442.906c4.364-.369 8.65-.185 13.015-.553M411.333 442.906c4.364-.369 8.65-.185 13.015-.553" fill="none" stroke="#1A0D7C" stroke-width="2.601"/><path d="M393.978 380.696h28.636q.086 0 .17.008.085.008.169.025.083.017.165.041.081.025.16.058.078.032.153.072.076.04.146.088.071.047.137.101.066.054.126.114.06.06.114.126.054.066.102.137.047.07.087.146.04.075.073.154.032.078.057.16.025.081.041.165.017.083.025.168.009.085.009.17v.012q0 .085-.009.17-.008.084-.025.168-.016.083-.041.165-.025.081-.057.16-.033.079-.073.154-.04.075-.087.146-.048.07-.102.136-.054.066-.114.126-.06.06-.126.115-.066.054-.137.1-.07.048-.146.088-.075.04-.153.073-.079.033-.16.057-.082.025-.165.042-.084.016-.169.025-.084.008-.17.008h-28.636q-.085 0-.17-.008-.085-.009-.168-.025-.084-.017-.165-.042-.082-.024-.16-.057-.08-.033-.154-.073-.075-.04-.146-.087-.07-.047-.137-.101-.066-.054-.126-.115-.06-.06-.114-.126-.054-.066-.101-.136-.048-.071-.088-.146-.04-.075-.072-.154-.033-.079-.058-.16-.024-.082-.041-.165-.017-.084-.025-.168-.008-.085-.008-.17v-.012q0-.085.008-.17t.025-.168q.017-.084.041-.165.025-.082.058-.16.032-.08.072-.154.04-.075.088-.146.047-.07.101-.137.054-.066.114-.126.06-.06.126-.114.066-.054.137-.101.07-.048.146-.088.075-.04.154-.072.078-.033.16-.058.081-.024.165-.041.083-.017.168-.025t.17-.008z" fill="#F6DFD2" fill-rule="evenodd"/><g clip-path="url(#p)" transform="translate(378.362 372)"><use xlink:href="#c" fill="none" stroke="#F6DFD2" stroke-width="6"/></g><g clip-path="url(#q)" transform="translate(378.362 372)"><use xlink:href="#d" fill="none" stroke="#F6DFD2" stroke-width="6"/></g><g clip-path="url(#r)" transform="translate(378.362 372)"><use xlink:href="#e" fill="none" stroke="#F6DFD2" stroke-width="6"/></g></g><g fill="#9FDEEB"><path d="m562.133 489.736-11.762 23.73-2.235-.157 11.733-23.731 2.264.158zm-17.146 17.994-12.126-7.192.06-.862 13.06-6.165-.153 2.192-9.745 4.546-.004.059 9.06 5.244-.152 2.178zm19.566 1.368 13.009-5.434.06-.862-12.074-7.923-.154 2.192 9.047 5.86-.006.088-9.73 3.901-.152 2.178z"/></g><g fill="#6F4CFF"><path d="M164.255 446.466q-2.242.463-1.83 3.393l.611 4.352q.624 4.439-3.807 5.12l-.256-1.827q1.258-.207 1.69-.977.43-.771.207-2.367l-.59-4.192q-.43-3.06 1.64-4.017l-.008-.058q-2.26-.393-2.688-3.439l-.597-4.25q-.396-2.814-2.725-2.546l-.26-1.857q4.446-.566 5.078 3.931l.596 4.236q.42 2.988 2.703 2.815l.236 1.683z"/></g><g fill="#6F4CFF"><path d="M318.193 226.596q-1.276.679-2.482.242-1.206-.438-1.953-1.843-.816-1.535-.484-2.845.332-1.31 1.694-2.035 1.32-.701 2.483-.27 1.165.432 1.953 1.915.789 1.484.448 2.81-.34 1.325-1.66 2.026zm-2.772-5.505q-.82.436-.97 1.296-.152.86.412 1.92.555 1.044 1.33 1.378.775.335 1.577-.092.81-.43.947-1.277.136-.847-.433-1.916-.554-1.043-1.317-1.385-.762-.34-1.546.076zm7.753-5.096-1.312 16.67-1.233.655 1.303-16.664 1.242-.66zm5.761 13.04q-1.276.68-2.484.238-1.208-.442-1.95-1.839-.817-1.534-.48-2.858.335-1.323 1.68-2.038 1.311-.697 2.484-.26 1.173.439 1.966 1.93.784 1.475.444 2.8-.34 1.326-1.66 2.028zm-2.767-5.495q-.828.44-.977 1.293-.149.853.42 1.923.545 1.026 1.32 1.36.775.335 1.577-.092.81-.43.944-1.282.134-.85-.43-1.911-.56-1.052-1.314-1.38-.756-.329-1.54.089z"/></g><path d="m363.166 329.111-24.497 33.452L337.362 322l23.749 4.032 2.055 3.08z" fill="#82CAC7" fill-rule="evenodd"/></svg>